<?xml version="1.0" standalone="no"?>
<!DOCTYPE svg PUBLIC "-//W3C//DTD SVG 20010904//EN"
 "http://www.w3.org/TR/2001/REC-SVG-20010904/DTD/svg10.dtd">
<svg version="1.0" xmlns="http://www.w3.org/2000/svg"
 width="700.000000pt" height="700.000000pt" viewBox="0 0 700.000000 700.000000"
 preserveAspectRatio="xMidYMid meet">
<metadata>
Created by potrace 1.14, written by Peter Selinger 2001-2017
</metadata>
<g transform="translate(0.000000,700.000000) scale(0.100000,-0.100000)"
fill="#000000" stroke="none">
<path d="M3278 6995 c-2 -2 -48 -6 -103 -9 -55 -4 -109 -9 -120 -11 -11 -2
-40 -7 -64 -10 -363 -44 -799 -192 -1181 -403 -161 -88 -457 -296 -574 -402
-124 -111 -166 -151 -219 -204 -70 -72 -187 -200 -218 -241 -13 -16 -26 -32
-29 -35 -14 -11 -159 -211 -211 -290 -192 -290 -354 -650 -443 -982 -32 -119
-73 -318 -81 -393 -4 -31 -8 -65 -10 -75 -25 -132 -26 -727 -1 -880 2 -14 7
-47 11 -75 12 -95 55 -300 85 -410 222 -792 737 -1502 1435 -1977 489 -333
1027 -530 1600 -584 159 -15 721 -7 777 10 7 3 36 7 63 10 45 5 71 9 195 31
151 27 407 104 590 177 114 46 383 178 470 230 573 345 1026 815 1338 1385
171 314 307 697 358 1012 3 18 8 43 10 55 2 11 7 41 9 66 3 25 7 54 10 65 11
53 19 241 19 440 0 246 -7 379 -29 520 -3 17 -7 48 -11 70 -3 22 -17 92 -30
155 -14 63 -27 125 -30 137 -2 12 -24 84 -49 161 -101 313 -225 574 -403 847
-71 109 -219 312 -257 351 -5 6 -35 40 -66 75 -95 107 -208 218 -359 353 -61
55 -235 185 -340 256 -261 174 -522 304 -810 402 -112 38 -340 101 -410 112
-19 3 -46 8 -60 11 -80 16 -112 20 -205 30 -33 3 -76 8 -95 12 -35 5 -557 13
-562 8z m305 -484 c205 -71 400 -308 550 -671 64 -157 180 -527 212 -679 2 -9
13 -56 24 -104 12 -48 21 -92 21 -98 0 -6 -17 -8 -42 -5 -42 5 -156 15 -228
21 -297 24 -1024 24 -1235 0 -16 -2 -66 -6 -110 -9 -44 -4 -100 -9 -123 -12
l-44 -5 6 38 c29 205 148 597 252 833 138 314 275 520 416 627 108 81 195 100
301 64z m-978 -163 c-99 -172 -216 -432 -281 -628 -15 -47 -29 -87 -29 -90 -1
-3 -11 -36 -23 -75 -35 -115 -80 -302 -118 -491 -19 -99 -37 -180 -39 -182 -1
-2 -15 -5 -31 -7 -28 -5 -89 -16 -109 -20 -5 -2 -48 -10 -95 -19 -247 -50
-570 -144 -785 -231 -169 -68 -436 -198 -478 -233 -26 -22 -24 -2 10 96 103
298 240 563 421 812 42 58 78 107 82 110 3 3 29 34 59 70 85 103 318 327 432
417 304 237 582 385 984 521 17 6 31 11 33 11 2 1 -13 -27 -33 -61z m1905 12
c112 -39 308 -127 429 -192 686 -371 1219 -1015 1451 -1750 l18 -57 -51 28
c-29 16 -79 44 -112 63 -61 34 -301 145 -365 167 -19 7 -44 17 -55 22 -123 55
-545 166 -834 220 -57 10 -105 20 -107 22 -2 1 -17 72 -34 157 -105 529 -249
944 -450 1297 l-41 71 43 -13 c24 -7 72 -23 108 -35z m-525 -1843 c22 -3 83
-8 135 -11 52 -4 111 -9 130 -11 19 -2 62 -7 95 -10 105 -11 116 -12 120 -16
7 -7 17 -86 30 -229 4 -36 8 -81 10 -100 14 -128 19 -312 19 -630 0 -383 -6
-534 -29 -745 -2 -22 -7 -71 -10 -110 -8 -96 -15 -125 -28 -126 -7 0 -19 -2
-27 -3 -31 -6 -118 -16 -200 -21 -47 -4 -96 -8 -109 -10 -73 -12 -328 -20
-646 -19 -365 1 -483 5 -715 29 -162 16 -208 21 -221 24 -14 2 -31 154 -56
491 -15 206 -7 1020 12 1119 1 9 6 54 9 101 4 47 9 105 13 130 3 24 6 55 8 68
1 14 8 28 14 31 6 4 76 13 154 20 78 7 153 14 167 16 14 2 84 7 155 10 72 4
132 9 134 11 5 5 788 -4 836 -9z m-1939 -204 c-4 -49 -9 -108 -12 -133 -40
-357 -34 -1196 12 -1527 8 -57 15 -57 -216 -1 -399 96 -793 256 -1050 426
-111 73 -236 199 -275 277 -26 52 -30 71 -30 145 0 115 30 175 140 286 135
135 343 259 635 377 173 70 494 172 609 194 14 2 28 6 32 8 4 3 22 7 40 10 19
3 50 10 69 14 19 5 39 9 44 10 5 1 6 -38 2 -86z m3001 61 c37 -9 76 -17 86
-19 47 -10 334 -91 432 -122 536 -172 865 -402 950 -662 87 -267 -276 -571
-966 -809 -105 -37 -342 -106 -398 -117 -12 -2 -30 -6 -39 -9 -9 -3 -29 -7
-45 -10 -15 -3 -35 -7 -45 -10 -9 -3 -30 -7 -46 -10 l-28 -5 6 82 c4 45 8 98
10 117 3 19 7 80 11 135 3 55 8 138 11 185 8 125 8 645 0 790 -9 163 -18 286
-31 433 -5 55 -7 54 92 31z m-4370 -1780 c173 -103 430 -214 674 -292 117 -37
450 -124 529 -137 19 -3 80 -15 135 -26 55 -10 101 -19 102 -19 1 0 4 -12 7
-27 3 -16 15 -77 26 -138 49 -252 169 -693 210 -767 6 -10 10 -22 10 -27 0
-38 224 -505 261 -545 22 -24 2 -22 -88 8 -276 94 -526 220 -762 383 -52 36
-99 69 -105 74 -258 202 -429 376 -608 614 -155 206 -305 477 -391 700 -32 85
-86 245 -82 245 2 0 39 -21 82 -46z m5699 -51 c-116 -343 -294 -667 -525 -953
-82 -101 -278 -304 -376 -388 -194 -165 -431 -321 -655 -429 -78 -37 -106 -50
-195 -88 -16 -7 -83 -31 -147 -54 -111 -37 -139 -41 -103 -11 8 7 15 16 15 20
0 4 22 47 50 96 103 183 214 459 286 708 20 67 37 131 40 144 2 12 18 75 34
140 16 64 31 131 33 147 3 17 10 50 16 75 5 25 12 61 16 80 14 90 13 88 68
100 29 6 68 13 87 16 19 3 41 7 49 10 8 2 30 7 50 10 128 21 513 129 701 197
168 61 409 174 525 245 28 17 53 31 57 31 4 1 -8 -43 -26 -96z m-3681 -497
c44 -4 96 -9 115 -11 36 -3 195 -14 330 -21 84 -5 685 -5 770 0 107 6 276 18
310 21 19 2 66 7 104 10 l68 6 -7 -48 c-12 -83 -83 -355 -129 -494 -210 -638
-494 -1036 -742 -1041 -194 -4 -392 186 -572 547 -131 264 -245 593 -316 916
-29 129 -29 132 -18 126 4 -3 43 -8 87 -11z"/>
</g>
</svg>
